:FULLY-SPECIFIED
:FORCE-ALL-JOINTS-BE-3DOF
:DEGREES
102
root 7.30973 16.7241 -26.8018 7.80292 4.25251 -5.39904
lfemur -30.9343 6.22102 -6.98688
ltibia 36.6527 -0 0
lfoot -14.8548 5.14581 -0.0841338
ltoes 14.6717 -0 0
rfemur -10.3682 -4.27862 18.1546
rtibia 25.5579 -0 0
rfoot -21.3068 -10.939 1.05231
rtoes -5.25803 0 0
lowerback -2.05007 3.19347 2.62313
upperback -1.58934 4.21487 0.784311
thorax -0.319206 2.08896 -0.547258
lowerneck -8.52499 -3.31569 2.81011
upperneck -3.8948 -4.66799 1.02353
head 0.144869 -2.35327 -0.289056
lclavicle -7.93663e-15 1.6944e-15 0
lhumerus -36.3572 -7.31593 78.4951
lradius 37.6682 -0 0
lwrist 8.44027 0 0
lhand -6.39175 2.59542 0.0411939
lfingers 7.12502 0 0
lthumb 14.8698 26.6368 0.0254238
rclavicle -7.93663e-15 1.6944e-15 0
rhumerus -31.0701 3.05876 -74.7003
rradius 37.7239 -0 0
rwrist 5.56551 0 0
rhand -17.9683 -16.2062 -0.010139
rfingers 7.12502 0 0
rthumb 3.68952 -41.2829 -0.0145839
103
root 7.36495 16.7259 -26.7633 7.78691 4.43697 -5.44465
lfemur -31.2505 6.14437 -7.10602
ltibia 37.1146 -0 0
lfoot -15.0719 5.13737 -0.0910674
ltoes 14.9453 -0 0
rfemur -10.9965 -4.34128 18.1724
rtibia 26.7496 -0 0
rfoot -20.7856 -10.5636 1.29983
rtoes -5.05159 0 0
lowerback -1.97193 3.2084 2.6116
upperback -1.58581 4.24082 0.821954
thorax -0.360001 2.10128 -0.502542
lowerneck -8.68613 -3.39107 2.84739
upperneck -3.89176 -4.77337 1.03059
head 0.172176 -2.40535 -0.29771
lclavicle -8.58327e-15 8.23534e-16 0
lhumerus -37.0435 -7.37316 79.7003
lradius 38.3894 -0 0
lwrist 8.67749 0 0
lhand -6.23864 2.72858 0.0527389
lfingers 7.12502 0 0
lthumb 15.3834 27.1493 0.0321617
rclavicle -8.58327e-15 8.23534e-16 0
rhumerus -31.6495 3.01627 -75.4429
rradius 38.5033 -0 0
rwrist 5.59291 0 0
rhand -18.2114 -16.4213 -0.00976557
rfingers 7.12502 0 0
rthumb 3.82558 -41.9095 -0.0124976
104
root 7.42018 16.7277 -26.7248 7.88685 4.76608 -5.57659
lfemur -32.1233 6.1281 -7.41469
ltibia 38.31 -0 0
lfoot -15.6134 5.11005 -0.0984133
ltoes 15.6142 -0 0
rfemur -12.0535 -4.43698 18.4105
rtibia 28.8726 -0 0
rfoot -20.2328 -10.1581 1.67192
rtoes -4.75107 0 0
lowerback -1.9018 3.27057 2.63307
upperback -1.6057 4.33083 0.884415
thorax -0.419145 2.14525 -0.450206
lowerneck -9.03641 -3.5446 2.93576
upperneck -3.94382 -4.98794 1.05843
head 0.212989 -2.51197 -0.312542
lclavicle -9.22991e-15 -4.73305e-17 0
lhumerus -38.5216 -7.48757 82.2977
lradius 39.9312 -0 0
lwrist 9.13542 0 0
lhand -6.10597 2.96323 0.070273
lfingers 7.12502 0 0
lthumb 16.3356 28.2607 0.0424493
rclavicle -9.22991e-15 -4.73305e-17 0
rhumerus -32.9313 2.97015 -77.3733
rradius 40.1058 -0 0
rwrist 5.72577 0 0
rhand -18.8646 -16.9643 -0.00977658
rfingers 7.12502 0 0
rthumb 4.02737 -43.3705 -0.0111269
105
root 7.4754 16.7295 -26.6862 8.12034 5.27263 -5.8101
lfemur -33.6337 6.17652 -7.95123
ltibia 40.3417 -0 0
lfoot -16.539 5.05357 -0.106209
ltoes 16.7548 -0 0
rfemur -13.6378 -4.57397 18.8966
rtibia 32.1202 -0 0
rfoot -19.6156 -9.6962 2.18532
rtoes -4.32225 0 0
lowerback -1.83756 3.38764 2.69168
upperback -1.65264 4.49528 0.977362
thorax -0.501484 2.22605 -0.386776
lowerneck -9.61233 -3.79214 3.08451
upperneck -4.05894 -5.33378 1.11071
head 0.270861 -2.68419 -0.334867
lclavicle -9.87656e-15 -9.18195e-16 0
lhumerus -40.9107 -7.63552 86.2725
lradius 42.4125 -0 0
lwrist 9.85976 0 0
lhand -5.98717 3.32294 0.094615
lfingers 7.12502 0 0
lthumb 17.8181 30.0742 0.056623
rclavicle -9.87656e-15 -9.18195e-16 0
rhumerus -35.031 2.91548 -80.5003
rradius 42.6503 -0 0
rwrist 5.98268 0 0
rhand -20.0031 -17.8927 -0.010211
rfingers 7.12502 0 0
rthumb 4.30746 -45.7741 -0.0105638
106
root 7.53062 16.7313 -26.6477 1.59258 12.283 -3.03397
lfemur -23.6313 -2.46527 -12.7543
ltibia 37.3992 0 0
lfoot -17.3285 -7.73592 0
ltoes 24.8613 0 0
rfemur -41.2156 -4.75181 1.11259
rtibia 89.2151 0 0
rfoot 33.361 22.0951 0
rtoes 18.775 0 0
lowerback 3.15315 1.13213 -0.317021
upperback -0.297715 1.54298 2.05108
thorax -2.13833 0.786902 2.20754
lowerneck -10.6307 -4.8356 2.16485
upperneck -0.487372 -6.69874 0.822634
head 1.59477 -3.31149 -0.407235
lclavicle -1.05232e-14 -1.78906e-15 0
lhumerus -46.6826 -10.7064 94.0168
lradius 49.2289 0 0
lwrist 15.1652 0 0
lhand 8.32967 9.00768 0
lfingers 7.12502 0 0
lthumb 33.5404 35.8923 0
rclavicle -1.05232e-14 -1.78906e-15 0
rhumerus -42.7698 1.23965 -69.1841
rradius 50.4904 0 0
rwrist 3.87067 0 0
rhand -22.1336 -15.8497 0
rfingers 7.12502 0 0
rthumb 4.27979 -45.7864 0
107
root 7.55364 16.7379 -26.6372 1.26834 13.0383 -3.13255
lfemur -24.6983 -2.35964 -14.1173
ltibia 39.8975 -0 0
lfoot -18.6234 -8.55504 -0.00171779
ltoes 27.297 -0 0
rfemur -45.1855 -6.06304 2.07256
rtibia 91.5749 -0 0
rfoot 34.5955 23.8529 -0.0209593
rtoes 18.3593 -0 0
lowerback 3.87341 1.13446 -0.478648
upperback -0.114641 1.5451 2.19364
thorax -2.34623 0.788524 2.4536
lowerneck -11.5826 -5.10497 2.31879
upperneck -0.446038 -7.07855 0.884272
head 1.76899 -3.4985 -0.431763
lclavicle -1.03368e-14 -6.81548e-16 0
lhumerus -49.991 -10.6717 98.3942
lradius 52.8489 -0 0
lwrist 16.3897 0 0
lhand 8.86738 9.60992 -0.002822
lfingers 7.12502 0 0
lthumb 36.0067 38.5555 0.00204498
rclavicle -1.03368e-14 -6.81548e-16 0
rhumerus -45.6946 0.983965 -72.7372
rradius 54.4879 -0 0
rwrist 3.68905 0 0
rhand -22.3704 -16.9037 -0.0651701
rfingers 7.12502 0 0
rthumb 6.05208 -48.6731 -0.0251595
108
root 7.57666 16.7444 -26.6267 0.976978 13.5808 -3.18527
lfemur -25.3673 -2.29133 -15.1319
ltibia 41.6004 -0 0
lfoot -19.5398 -9.19323 -0.00241883
ltoes 29.0872 -0 0
rfemur -48.1108 -7.0803 2.78998
rtibia 93.0797 -0 0
rfoot 35.5155 25.2003 -0.0875542
rtoes 18.0008 -0 0
lowerback 4.44341 1.126 -0.613929
upperback 0.0372643 1.53153 2.29862
thorax -2.50407 0.782299 2.64404
lowerneck -12.2756 -5.29249 2.42642
upperneck -0.398138 -7.34335 0.925307
head 1.90198 -3.62879 -0.449848
lclavicle -1.01505e-14 4.25965e-16 0
lhumerus -52.2758 -10.6217 101.116
lradius 55.3476 -0 0
lwrist 17.2849 0 0
lhand 9.28075 10.0472 -0.00774657
lfingers 7.12502 0 0
lthumb 37.7684 40.4271 0.00227123
rclavicle -1.01505e-14 4.25965e-16 0
rhumerus -47.7198 0.794788 -74.9862
rradius 57.2525 -0 0
rwrist 3.513 0 0
rhand -22.4187 -17.6243 -0.122696
rfingers 7.12502 0 0
rthumb 7.45318 -50.6244 -0.0515331
109
root 7.59967 16.751 -26.6163 0.729115 13.9236 -3.19794
lfemur -25.6772 -2.26618 -15.807
ltibia 42.5932 -0 0
lfoot -20.0982 -9.65141 -0.0022193
ltoes 30.2626 -0 0
rfemur -50.0778 -7.80124 3.24835
rtibia 93.9717 -0 0
rfoot 36.1677 26.1567 -0.19568
rtoes 17.7267 -0 0
lowerback 4.85724 1.10857 -0.720363
upperback 0.154176 1.50536 2.36774
thorax -2.61256 0.769807 2.77901
lowerneck -12.7174 -5.40367 2.48975
upperneck -0.346091 -7.50076 0.946691
head 1.99397 -3.70605 -0.461813
lclavicle -9.96411e-15 1.53348e-15 0
lhumerus -53.6702 -10.5854 102.667
lradius 56.882 -0 0
lwrist 17.8649 0 0
lhand 9.57726 10.3285 -0.0143178
lfingers 7.12502 0 0
lthumb 38.8906 41.584 0.000938201
rclavicle -9.96411e-15 1.53348e-15 0
rhumerus -48.9532 0.664377 -76.208
rradius 58.9589 -0 0
rwrist 3.35359 0 0
rhand -22.3173 -18.0303 -0.169539
rfingers 7.12502 0 0
rthumb 8.46293 -51.7598 -0.0756845
